<svg xmlns="http://www.w3.org/2000/svg" viewBox="0 0 1000 48"><defs><linearGradient id="m" x2=".3" y2="1"><stop stop-color="#fff0bb"/><stop offset=".22" stop-color="#a88950"/><stop offset=".48" stop-color="#42382c"/><stop offset=".7" stop-color="#d5b979"/><stop offset="1" stop-color="#665038"/></linearGradient><radialGradient id="g"><stop stop-color="#dbfff1"/><stop offset=".3" stop-color="#82b9b0"/><stop offset="1" stop-color="#18343c"/></radialGradient></defs><path d="M0 24Q140 22 240 19L470 18L500 4L530 18H760Q860 22 1000 24L760 29H540L500 43L460 29H240Z" fill="#0b1219"/><path d="M0 24L230 22L461 22L500 4L539 22L770 22L1000 24M0 26L230 28L461 28L500 43L539 28L770 28L1000 26" fill="none" stroke="url(#m)" stroke-width="2"/><g fill="none" stroke="url(#m)"><path d="M433 22Q451 0 477 18M567 22Q549 0 523 18M433 28Q451 48 477 32M567 28Q549 48 523 32"/></g><path d="M500 13L510 24L500 35L490 24Z" fill="url(#g)" stroke="url(#m)"/></svg>