<svg xmlns="http://www.w3.org/2000/svg" viewBox="0 0 200 200"><defs><radialGradient id="flare"><stop stop-color="#fff"/><stop offset=".2" stop-color="#fff3c2" stop-opacity=".9"/><stop offset="1" stop-color="#ffba52" stop-opacity="0"/></radialGradient><linearGradient id="blade" x2="1" y2="1"><stop stop-color="#ffffff"/><stop offset=".45" stop-color="#b6eaff" stop-opacity=".85"/><stop offset="1" stop-color="#7196fc" stop-opacity="0"/></linearGradient><linearGradient id="life" x2="0" y2="1"><stop stop-color="#caffe9" stop-opacity="0"/><stop offset=".6" stop-color="#a6ffce" stop-opacity=".7"/><stop offset="1" stop-color="#68efb9" stop-opacity="0"/></linearGradient></defs><path d="M72 0h56l19 168H53Z" fill="url(#life)"/><ellipse cx="100" cy="165" rx="69" ry="22" fill="none" stroke="#ffe4a4" stroke-width="3"/><ellipse cx="100" cy="165" rx="49" ry="14" fill="none" stroke="#f6ffe0"/><path d="M99 124C59 120 35 95 27 61c23 28 45 22 70 44M101 124c40-4 64-29 72-63-23 28-45 22-70 44" fill="#e9fff1" fill-opacity=".75"/><path d="m100 32 7 25 23 7-23 7-7 25-7-25-23-7 23-7Z" fill="#fff3c2"/><g fill="#ffedba"><path d="m50 156 8-5 5 9-8 5Zm87 0 8-5 5 9-8 5Z"/></g></svg>
